<svg width="24" height="24" viewBox="0 0 24 24" fill="none" xmlns="http://www.w3.org/2000/svg">
<rect width="24" height="24" rx="3" fill="#4DA7EB"/>
<path d="M20.8281 14.2188L19.5781 13.4766C19.6172 13.1641 19.6172 12.8516 19.6172 12.5C19.6172 12.1875 19.6172 11.875 19.5781 11.5625L20.8281 10.8203C21.2188 10.625 21.375 10.1562 21.2578 9.76562C20.8281 8.28125 20.0469 6.95312 19.0312 5.85938C18.7188 5.54688 18.25 5.46875 17.8594 5.70312L16.6094 6.44531C16.1016 6.05469 15.5547 5.74219 14.9297 5.46875V4.02344C14.9297 3.55469 14.6562 3.20312 14.2266 3.08594C12.7422 2.73438 11.2188 2.73438 9.73438 3.08594C9.30469 3.20312 9.03125 3.55469 9.03125 4.02344V5.46875C8.40625 5.74219 7.85938 6.05469 7.35156 6.44531L6.10156 5.70312C5.71094 5.46875 5.24219 5.54688 4.92969 5.85938C3.91406 6.95312 3.13281 8.28125 2.70312 9.76562C2.58594 10.1562 2.74219 10.625 3.13281 10.8203L4.38281 11.5625C4.34375 11.875 4.34375 12.1875 4.34375 12.5391C4.34375 12.8516 4.34375 13.1641 4.38281 13.4766L3.13281 14.2188C2.74219 14.4141 2.58594 14.8828 2.70312 15.2734C3.13281 16.7578 3.91406 18.0859 4.92969 19.1797C5.24219 19.4922 5.71094 19.5703 6.10156 19.3359L7.35156 18.5938C7.85938 18.9844 8.40625 19.2969 9.03125 19.5703V21.0156C9.03125 21.4844 9.30469 21.8359 9.73438 21.9531C11.2188 22.3047 12.7422 22.3047 14.2266 21.9531C14.6562 21.8359 14.9297 21.4844 14.9297 21.0156V19.5703C15.5547 19.2969 16.1016 18.9844 16.6094 18.5938L17.8594 19.3359C18.25 19.5703 18.7188 19.4922 19.0312 19.1797C20.0469 18.0859 20.8281 16.7578 21.2578 15.2734C21.375 14.8828 21.2188 14.4141 20.8281 14.2188ZM18.2891 18.125L16.4531 17.0703C15.3984 18.0078 15.0469 18.2031 13.6797 18.7109V20.7812C13.1328 20.8984 12.5469 20.9766 11.9609 20.9766C11.375 20.9766 10.8281 20.8984 10.2812 20.7812V18.7109C8.95312 18.2422 8.5625 18.0078 7.50781 17.0703L5.67188 18.125C4.92969 17.2656 4.34375 16.25 3.95312 15.1562L5.78906 14.1406C5.51562 12.7344 5.51562 12.3047 5.78906 10.8984L3.95312 9.88281C4.34375 8.78906 4.92969 7.77344 5.67188 6.91406L7.50781 7.96875C8.5625 7.03125 8.95312 6.79688 10.2812 6.32812V4.25781C10.8281 4.14062 11.4141 4.0625 12 4.0625C12.5859 4.0625 13.1328 4.14062 13.6797 4.25781V6.32812C15.0078 6.79688 15.3984 7.03125 16.4531 7.96875L18.2891 6.91406C19.0312 7.77344 19.6172 8.78906 20.0078 9.88281L18.1719 10.8984C18.4453 12.3047 18.4453 12.7344 18.1719 14.1406L20.0078 15.1562C19.6172 16.25 19.0312 17.2656 18.2891 18.125ZM12 8.75C9.92969 8.75 8.25 10.4688 8.25 12.5C8.25 14.5703 9.92969 16.25 12 16.25C14.0312 16.25 15.75 14.5703 15.75 12.5C15.75 10.4688 14.0312 8.75 12 8.75ZM12 15C10.5938 15 9.5 13.9062 9.5 12.5C9.5 11.1328 10.5938 10 12 10C13.3672 10 14.5 11.1328 14.5 12.5C14.5 13.9062 13.3672 15 12 15Z" fill="white"/>
</svg>
